<?xml version="1.0" encoding="UTF-8"?>
<svg id="Layer_1" data-name="Layer 1" xmlns="http://www.w3.org/2000/svg" viewBox="0 0 1000 1000">
  <defs>
    <style>
      .cls-1 {
        fill: #fff;
      }

      .cls-2 {
        fill: none;
      }
    </style>
  </defs>
  <path class="cls-2" d="m897.87,458.21c-2.65-2.29-5.96-3.44-9.93-3.44s-7,1.1-9.6,3.31c-2.6,2.21-4.22,5.34-4.83,9.4h28.33c0-3.88-1.32-6.97-3.97-9.27Z"/>
  <path class="cls-2" d="m664.48,493.02c4.32,0,8.01-1.59,11.05-4.77,3.04-3.18,4.57-7.72,4.57-13.64s-1.48-10.46-4.44-13.64c-2.96-3.18-6.6-4.77-10.92-4.77s-8.08,1.57-10.99,4.7c-2.91,3.13-4.37,7.7-4.37,13.7s1.43,10.46,4.3,13.64c2.87,3.18,6.46,4.77,10.79,4.77Z"/>
  <path class="cls-2" d="m683.31,602.03c-6.68,0-12.34,2.39-16.98,7.17-4.65,4.78-6.97,11.36-6.97,19.73s2.32,15.02,6.97,19.93c4.64,4.91,10.31,7.36,16.98,7.36s12.33-2.42,16.98-7.26c4.64-4.84,6.97-11.45,6.97-19.83s-2.33-14.99-6.97-19.83c-4.65-4.84-10.31-7.26-16.98-7.26Z"/>
  <path class="cls-2" d="m937.75,604.78c-3.93-3.4-8.84-5.1-14.73-5.1s-10.38,1.64-14.23,4.91c-3.86,3.27-6.25,7.92-7.17,13.94h42.01c0-5.76-1.96-10.34-5.89-13.74Z"/>
  <polygon class="cls-1" points="525.66 683.9 610.08 683.9 610.08 657 559.23 657 559.23 626.77 604.19 626.77 604.19 600.85 559.23 600.85 559.23 572.97 610.08 572.97 610.08 546.08 525.66 546.08 525.66 683.9"/>
  <path class="cls-1" d="m707.26,589.86c-3.14-5.1-7.63-9.23-13.45-12.37-5.83-3.14-12.6-4.71-20.32-4.71-9.03,0-17.21,2.29-24.54,6.87-7.33,4.58-13.12,11.13-17.37,19.63-4.26,8.51-6.38,18.39-6.38,29.65s2.13,21.17,6.38,29.74c4.25,8.57,10.04,15.18,17.37,19.83,7.33,4.65,15.44,6.97,24.34,6.97,7.72,0,14.5-1.57,20.32-4.71,5.82-3.14,10.37-7.26,13.64-12.37v15.51h33.57v-109.55h-33.57v15.51Zm-6.97,59.1c-4.65,4.84-10.31,7.26-16.98,7.26s-12.34-2.45-16.98-7.36c-4.65-4.91-6.97-11.55-6.97-19.93s2.32-14.95,6.97-19.73c4.64-4.78,10.31-7.17,16.98-7.17s12.33,2.42,16.98,7.26c4.64,4.84,6.97,11.46,6.97,19.83s-2.33,14.99-6.97,19.83Z"/>
  <path class="cls-1" d="m834.68,624.12c-5.1-2.03-11.72-4.09-19.83-6.18-7.07-1.57-12.27-3.14-15.61-4.71-3.34-1.57-5.01-3.93-5.01-7.07,0-2.62,1.05-4.68,3.14-6.18,2.09-1.5,5.1-2.26,9.03-2.26,4.58,0,8.28,1.11,11.09,3.34,2.81,2.23,4.48,5.24,5.01,9.03h31.02c-1.18-11.26-5.73-20.29-13.64-27.09-7.92-6.8-18.75-10.21-32.49-10.21-9.29,0-17.31,1.51-24.05,4.52-6.74,3.01-11.85,7.1-15.31,12.27-3.47,5.17-5.2,10.9-5.2,17.18,0,7.46,1.9,13.38,5.69,17.77,3.8,4.39,8.31,7.59,13.55,9.62,5.23,2.03,11.78,3.96,19.63,5.79,7.33,1.83,12.63,3.5,15.9,5.01,3.27,1.51,4.91,3.83,4.91,6.97,0,2.62-1.15,4.75-3.44,6.38-2.29,1.64-5.53,2.45-9.72,2.45-4.58,0-8.44-1.18-11.58-3.53-3.14-2.36-4.91-5.43-5.3-9.23h-33.18c.52,7.07,2.95,13.45,7.26,19.14s10.21,10.18,17.67,13.45c7.46,3.27,15.97,4.91,25.52,4.91,8.9,0,16.72-1.44,23.46-4.32,6.74-2.88,11.91-6.84,15.51-11.88,3.6-5.04,5.4-10.76,5.4-17.18-.13-7.59-2.13-13.64-5.99-18.16-3.86-4.52-8.34-7.79-13.45-9.82Z"/>
  <path class="cls-1" d="m978,627.36c0-10.99-2.33-20.62-6.97-28.86-4.65-8.25-11.09-14.59-19.34-19.04-8.25-4.45-17.67-6.67-28.27-6.67s-20.49,2.29-28.86,6.87c-8.38,4.58-14.89,11.13-19.53,19.63-4.65,8.51-6.97,18.45-6.97,29.84s2.36,21.34,7.07,29.84c4.71,8.51,11.26,15.05,19.63,19.63,8.38,4.58,17.93,6.87,28.66,6.87,8.9,0,16.95-1.63,24.15-4.91,7.2-3.27,13.19-7.79,17.96-13.55,4.78-5.76,8.08-12.24,9.92-19.44h-35.73c-3.27,7.07-9.1,10.6-17.47,10.6-5.63,0-10.38-1.8-14.23-5.4-3.86-3.6-6.06-8.8-6.58-15.61h75.98c.39-3.4.59-6.67.59-9.82Zm-76.37-8.84c.91-6.02,3.3-10.67,7.17-13.94,3.86-3.27,8.61-4.91,14.23-4.91s10.8,1.7,14.73,5.1c3.93,3.4,5.89,7.98,5.89,13.74h-42.01Z"/>
  <path class="cls-1" d="m439.95,491.17c-1.83-1.51-3.64-2.97-5.41-4.43-2.92-2.37-5.93-4.82-8.85-7.26-3.76-3.15-7.58-6.43-11.25-9.62-.75-.65-1.51-1.29-2.24-1.94v-.29c-.02-14.95-.02-29.91-.02-44.84,0-18.06,0-36.09-.02-54.16,0-.2.02-.43.04-.63.05-1.34.18-3.41-.54-5.75-.95-8.12-5.88-13.06-14.03-14.07-1.24-.36-2.56-.54-3.98-.54-.48,0-.97.02-1.45.04-.18.02-.36.04-.54.04-7.03-.02-14.07-.04-21.09-.04-5.97,0-11.94.02-17.9.04h-.11c-.72,0-1.43-.02-2.17-.05-.91-.02-1.81-.05-2.72-.05-1.43,0-3.55.05-5.88.54-8.05,1.08-13.24,6.29-13.85,13.85-.47,2.04-.39,3.84-.34,5.09.02.27.04.52.04.77-.02,4.68-.02,9.35-.02,14.03v15.52c-11.33-9.39-20.02-16.58-28.14-23.24-2.46-2.03-4.95-4.16-7.37-6.24-6.04-5.16-12.28-10.52-19.21-15.18-5.45-3.64-12.96-5.65-21.17-5.65s-16.06,2.06-21.61,5.81c-5.38,3.62-10.13,7.74-14.73,11.74-1.31,1.15-2.62,2.28-3.96,3.41-5.84,4.96-11.9,9.95-17.74,14.75-3.66,3.01-7.29,6.02-10.93,9.03-3.51,2.92-7.01,5.88-10.5,8.84-3.55,2.99-7.08,5.99-10.66,8.94-4.62,3.85-9.28,7.69-13.94,11.52-4.84,4-9.7,7.99-14.52,12.03-3.49,2.9-6.97,5.84-10.45,8.76-3.6,3.06-7.35,6.22-11.02,9.28-4.32,3.57-8.66,7.13-12.98,10.68-4.79,3.92-9.73,7.98-14.59,12.01-3.23,2.71-6.45,5.47-9.57,8.14-4.05,3.48-8.24,7.06-12.42,10.47-1.72,1.4-3.46,2.8-5.2,4.19-7.03,5.66-14.28,11.54-21.08,17.98-6.42,6.08-6.97,16.9-1.22,23.19,2.26,2.46,4.37,5.07,6.61,7.83,3.44,4.23,6.97,8.6,11.2,12.63,3.28,3.12,7.44,4.82,11.7,4.82,3.42,0,6.76-1.09,9.64-3.19,2.87-2.1,5.52-4.32,8.08-6.47l1.22-1.02c3.14-2.67,6.29-5.32,9.44-8.01,4.12-3.49,8.39-7.1,12.6-10.63,4.61-3.84,9.23-7.65,13.85-11.47,4.87-4.01,9.75-8.03,14.59-12.08,3.46-2.9,6.95-5.88,10.32-8.75,3.82-3.26,7.78-6.65,11.7-9.89,5.09-4.23,10.29-8.48,15.32-12.6,5.57-4.55,11.33-9.25,16.95-13.92,4.89-4.09,9.8-8.28,14.57-12.33,4.18-3.57,8.49-7.26,12.76-10.82,6.65-5.56,13.32-11.08,20-16.61,5.45-4.53,10.91-9.07,16.38-13.62,5.5,4.73,11.56,9.82,18.76,15.81,6.15,5.09,12.31,10.16,18.48,15.23,7.83,6.43,15.91,13.1,23.82,19.68,5.38,4.46,10.81,9.07,16.06,13.53,5.32,4.53,10.84,9.21,16.33,13.78,7.24,6,14.62,12.08,21.77,17.96,6.74,5.54,13.71,11.27,20.54,16.94,12.92,10.75,26.83,22.33,40.79,34.25,3.06,2.62,6.76,4.05,10.72,4.16.16.02.32.02.48.02,3.69,0,7.28-1.16,10.27-3.24v-12.58c-1.09,1.43-2.2,2.85-3.44,4.14-1.81,1.95-4.55,3.14-7.31,2.97-1.76-.09-3.53-.73-5.09-2.06-13.53-11.56-27.19-22.96-40.86-34.32-14.07-11.7-28.26-23.21-42.31-34.91-10.86-9.03-21.54-18.26-32.38-27.31-14.07-11.68-28.23-23.24-42.31-34.91-7.1-5.9-14.18-11.83-21.15-17.89-2.17-1.86-3.91-1.92-6.09-.09-12.98,10.84-26.04,21.58-39,32.44-9.16,7.65-18.15,15.48-27.33,23.12-10.7,8.91-21.56,17.63-32.26,26.52-7.42,6.15-14.66,12.47-22.06,18.66-9.44,7.89-18.98,15.66-28.42,23.55-7.4,6.18-14.71,12.46-22.08,18.64-2.9,2.44-5.77,4.91-8.82,7.13-3.33,2.42-7.31,1.88-10.25-.91-6.43-6.11-11.42-13.51-17.4-20.02-2.6-2.85-2.08-8.33.79-11.02,8.17-7.74,17.06-14.64,25.79-21.76,7.46-6.08,14.68-12.49,22.06-18.64,9.14-7.62,18.41-15.09,27.56-22.71,7.19-5.97,14.28-12.08,21.47-18.05,9.46-7.89,19-15.66,28.46-23.53,7.08-5.9,14.09-11.9,21.17-17.8,9.57-7.96,19.25-15.77,28.75-23.84,5.86-4.98,11.51-10.23,17.92-14.57,8.41-5.65,24.62-5.81,33.08-.13,9.25,6.2,17.33,13.85,25.91,20.9,9.41,7.76,18.82,15.54,28.21,23.33,4.28,3.55,8.51,7.17,12.76,10.77.89.47,1.38.53,1.65.38.58-.33.05-1.73.05-2.24.03-16.58-.03-33.17-.08-49.76,0,0,0,0,0,0,.06-4.4,2.69-6.2,6.68-6.64h0s0,0,0,0c17.49,0,34.98,0,52.47,0,5.02.36,7.11,2.46,7.42,7.44-.02,34.82-.04,69.62-.04,104.45,0,.69-.1,1.41,0,2.08.07.52.25,1.02.69,1.46h0s0,0,0,0c5.43,4.68,10.84,9.39,16.33,14,5.81,4.86,11.74,9.53,17.56,14.39.38.32.77.65,1.15.97,3.6,3.03,7.17,6.09,10.75,9.12v-11.4c-2.1-1.79-4.21-3.58-6.34-5.36-1.09-.91-2.19-1.81-3.28-2.71Z"/>
  <path class="cls-1" d="m403.88,552.63c0-1.12.65-2.52-.77-3.36-2.95-4.02-7.27-6.48-10.98-9.62-8.81-7.45-17.58-14.95-26.48-22.3-10.33-8.54-20.81-16.9-31.17-25.41-8.49-6.99-16.84-14.14-25.34-21.12-8.57-7.04-17.28-13.92-25.87-20.96-9.75-7.99-19.43-16.06-29.12-24.12-1.6-1.33-3.31-1.43-4.82-.2-6.62,5.37-13.17,10.83-19.71,16.29-7.08,5.9-14.08,11.89-21.19,17.76-8.75,7.22-17.62,14.3-26.38,21.52-7.01,5.77-13.88,11.69-20.89,17.46-8.76,7.21-17.6,14.33-26.39,21.5-7.22,5.89-14.59,11.62-21.59,17.75-4.34,3.8-9.56,6.64-12.93,11.53-.05,27.58-.12,55.15-.13,82.73,0,15.3.09,30.61.13,45.91-.13,7.63,7.92,15.72,15.59,15.65,33.36.04,66.72.09,100.08.12.74,0,1.72.33,1.99-.85l.12.08c1.43-1.37.73-3.13.73-4.7.07-31.89.08-63.77.11-95.66,22.08,0,44.17,0,66.25.01.03,31.88.04,63.77.11,95.65,0,1.56-.7,3.32.73,4.7l.12-.08c.27,1.18,1.25.85,1.99.85,33.36-.03,66.72-.07,100.08-.12,7.06.22,15.82-8.89,14.95-16.37,1.45-.84.75-2.24.76-3.35.04-40.43.04-80.85,0-121.28Z"/>
  <polygon class="cls-1" points="591.93 455.03 556.72 455.03 556.72 418.62 534.08 418.62 534.08 511.56 556.72 511.56 556.72 473.3 591.93 473.3 591.93 511.56 614.57 511.56 614.57 418.62 591.93 418.62 591.93 455.03"/>
  <path class="cls-1" d="m644.95,507.98c5.78,3.09,12.29,4.63,19.53,4.63s13.79-1.54,19.66-4.63c5.87-3.09,10.5-7.52,13.9-13.3,3.4-5.78,5.1-12.46,5.1-20.06s-1.68-14.28-5.03-20.06c-3.36-5.78-7.94-10.21-13.77-13.3-5.83-3.09-12.36-4.63-19.59-4.63s-13.77,1.55-19.59,4.63c-5.82,3.09-10.41,7.52-13.77,13.3-3.36,5.78-5.03,12.47-5.03,20.06s1.65,14.39,4.96,20.12c3.31,5.74,7.85,10.15,13.64,13.24Zm8.8-47.06c2.91-3.13,6.57-4.7,10.99-4.7s7.96,1.59,10.92,4.77c2.96,3.18,4.44,7.72,4.44,13.64s-1.52,10.46-4.57,13.64c-3.05,3.18-6.73,4.77-11.05,4.77s-7.92-1.59-10.79-4.77c-2.87-3.18-4.3-7.72-4.3-13.64s1.46-10.57,4.37-13.7Z"/>
  <path class="cls-1" d="m766.15,471.44v40.11h22.5v-40.11c0-4.77,1.26-8.45,3.77-11.05,2.52-2.6,5.98-3.91,10.39-3.91s7.88,1.3,10.39,3.91c2.52,2.6,3.77,6.29,3.77,11.05v40.11h22.5v-43.16c0-9.88-2.71-17.61-8.14-23.17-5.43-5.56-12.73-8.34-21.91-8.34-5.21,0-10.02,1.28-14.43,3.84-4.41,2.56-7.9,5.87-10.46,9.93-2.47-4.41-5.89-7.81-10.26-10.19-4.37-2.38-9.33-3.57-14.89-3.57-4.68,0-8.87.91-12.58,2.71-3.71,1.81-6.71,4.26-9,7.35v-9.27h-22.64v73.87h22.64v-40.11c0-4.77,1.26-8.45,3.77-11.05,2.52-2.6,5.98-3.91,10.39-3.91s7.88,1.3,10.39,3.91c2.51,2.6,3.77,6.29,3.77,11.05Z"/>
  <path class="cls-1" d="m888.21,512.61c6,0,11.43-1.1,16.28-3.31,4.85-2.21,8.89-5.25,12.11-9.14,3.22-3.88,5.45-8.25,6.69-13.11h-24.09c-2.21,4.77-6.14,7.15-11.78,7.15-3.8,0-7-1.21-9.6-3.64-2.6-2.43-4.08-5.93-4.44-10.52h51.23c.26-2.29.4-4.5.4-6.62,0-7.41-1.57-13.9-4.7-19.46-3.13-5.56-7.48-9.84-13.04-12.84-5.56-3-11.91-4.5-19.06-4.5s-13.81,1.55-19.46,4.63c-5.65,3.09-10.04,7.5-13.17,13.24-3.13,5.74-4.7,12.44-4.7,20.12s1.59,14.39,4.77,20.12c3.18,5.74,7.59,10.15,13.24,13.24,5.65,3.09,12.09,4.63,19.33,4.63Zm-9.86-54.54c2.6-2.2,5.8-3.31,9.6-3.31s7.28,1.15,9.93,3.44c2.65,2.3,3.97,5.38,3.97,9.27h-28.33c.62-4.06,2.23-7.19,4.83-9.4Z"/>
</svg>